<?xml version="1.0" encoding="utf-8"?>
<!-- Generator: Adobe Illustrator 23.0.4, SVG Export Plug-In . SVG Version: 6.00 Build 0)  -->
<svg version="1.1" id="Layer_1" xmlns="http://www.w3.org/2000/svg" xmlns:xlink="http://www.w3.org/1999/xlink" x="0px" y="0px"
	 viewBox="0 0 496 496" style="enable-background:new 0 0 496 496;" xml:space="preserve">
<style type="text/css">
	.st0{fill:#6241E6;}
	.st1{fill:#474747;}
	.st2{fill:#474747;stroke:#474747;stroke-width:14;stroke-miterlimit:10;}
	.st3{fill:#6241E6;stroke:#6241E6;stroke-width:15;stroke-miterlimit:10;}
	.st4{fill:#474747;stroke:#474747;stroke-width:15;stroke-miterlimit:10;}
	.st5{fill:#FFFFFF;}
	.st6{fill:#474747;stroke:#474747;stroke-width:18;stroke-miterlimit:10;}
	.st7{fill:#6241E6;stroke:#6241E6;stroke-width:18;stroke-miterlimit:10;}
</style>
<path class="st1" d="M180,476h-60c-16.56,0-30-21.64-30-48.32V73.32C90,46.64,103.44,25,120,25h60c16.56,0,30,21.64,30,48.32v354.36
	C210,454.36,196.56,476,180,476z M405,427.68V73.32C405,46.64,391.56,25,375,25h-60c-16.56,0-30,21.64-30,48.32v354.36
	c0,26.68,13.44,48.32,30,48.32h60C391.56,476,405,454.36,405,427.68z"/>
</svg>
