<?xml version="1.0" encoding="utf-8"?>
<!-- Generator: Adobe Illustrator 23.0.4, SVG Export Plug-In . SVG Version: 6.00 Build 0)  -->
<svg version="1.1" id="Layer_1" xmlns="http://www.w3.org/2000/svg" xmlns:xlink="http://www.w3.org/1999/xlink" x="0px" y="0px"
	 viewBox="0 0 496 496" style="enable-background:new 0 0 496 496;" xml:space="preserve">
<style type="text/css">
	.st0{fill:#6241E6;}
	.st1{fill:#474747;}
	.st2{fill:#474747;stroke:#474747;stroke-width:14;stroke-miterlimit:10;}
	.st3{fill:#6241E6;stroke:#6241E6;stroke-width:15;stroke-miterlimit:10;}
	.st4{fill:#474747;stroke:#474747;stroke-width:15;stroke-miterlimit:10;}
	.st5{fill:#FFFFFF;}
	.st6{fill:#474747;stroke:#474747;stroke-width:18;stroke-miterlimit:10;}
	.st7{fill:#6241E6;stroke:#6241E6;stroke-width:18;stroke-miterlimit:10;}
</style>
<path class="st1" d="M363,230.11L188.06,123.76c-15.7-8.75-35.48,2.48-35.48,20.87v206.74c0,18.29,19.68,29.62,35.48,20.87
	L363,271.85C379.3,262.81,379.3,239.25,363,230.11z M494.5,248C494.5,111.83,384.17,1.5,248,1.5S1.5,111.83,1.5,248
	S111.83,494.5,248,494.5S494.5,384.17,494.5,248z M49.21,248c0-109.83,88.96-198.79,198.79-198.79S446.79,138.17,446.79,248
	S357.83,446.79,248,446.79S49.21,357.83,49.21,248z"/>
</svg>
