<?xml version="1.0" encoding="utf-8"?>
<!-- Generator: Adobe Illustrator 23.0.4, SVG Export Plug-In . SVG Version: 6.00 Build 0)  -->
<svg version="1.1" id="Layer_1" xmlns="http://www.w3.org/2000/svg" xmlns:xlink="http://www.w3.org/1999/xlink" x="0px" y="0px"
	 viewBox="0 0 496 496" style="enable-background:new 0 0 496 496;" xml:space="preserve">
<style type="text/css">
	.st0{fill:#6241E6;}
	.st1{fill:#474747;}
	.st2{fill:#474747;stroke:#474747;stroke-width:14;stroke-miterlimit:10;}
	.st3{fill:#6241E6;stroke:#6241E6;stroke-width:15;stroke-miterlimit:10;}
	.st4{fill:#474747;stroke:#474747;stroke-width:15;stroke-miterlimit:10;}
	.st5{fill:#FFFFFF;}
	.st6{fill:#474747;stroke:#474747;stroke-width:18;stroke-miterlimit:10;}
	.st7{fill:#6241E6;stroke:#6241E6;stroke-width:18;stroke-miterlimit:10;}
</style>
<path class="st1" d="M457.21,196.32H300.68V39.79C300.68,20.58,285.1,5,265.89,5h-34.79c-19.21,0-34.79,15.58-34.79,34.79v156.54
	H39.79C20.58,196.32,5,211.9,5,231.11v34.79c0,19.21,15.58,34.79,34.79,34.79h156.54v156.54c0,19.21,15.58,34.79,34.79,34.79h34.79
	c19.21,0,34.79-15.58,34.79-34.79V300.68h156.54c19.21,0,34.79-15.58,34.79-34.79v-34.79C492,211.9,476.42,196.32,457.21,196.32z"/>
</svg>
