<?xml version="1.0" encoding="utf-8"?>
<!-- Generator: Adobe Illustrator 23.0.4, SVG Export Plug-In . SVG Version: 6.00 Build 0)  -->
<svg version="1.1" id="Layer_1" xmlns="http://www.w3.org/2000/svg" xmlns:xlink="http://www.w3.org/1999/xlink" x="0px" y="0px"
	 viewBox="0 0 496 496" style="enable-background:new 0 0 496 496;" xml:space="preserve">
<style type="text/css">
	.st0{fill:#6241E6;}
	.st1{fill:#474747;}
	.st2{fill:#474747;stroke:#474747;stroke-width:14;stroke-miterlimit:10;}
	.st3{fill:#6241E6;stroke:#6241E6;stroke-width:15;stroke-miterlimit:10;}
	.st4{fill:#474747;stroke:#474747;stroke-width:15;stroke-miterlimit:10;}
	.st5{fill:#FFFFFF;}
	.st6{fill:#474747;stroke:#474747;stroke-width:18;stroke-miterlimit:10;}
	.st7{fill:#6241E6;stroke:#6241E6;stroke-width:18;stroke-miterlimit:10;}
</style>
<g id="圖層_2_4_">
	<path class="st6" d="M371.78,271.72c-8.03,8.03-8.03,21.02,0,29.05l36.39,36.39h-93.38c-14.34,0-46.45-19.6-71.95-90.75
		c25.5-71.17,57.61-90.75,71.95-90.75h93.38l-36.39,36.39c-8.03,8.03-8.03,21.02,0,29.05c4.01,4.01,9.27,6.02,14.53,6.02
		s10.52-2.01,14.53-6.02l84.13-84.13l-87.85-87.85c-8.03-8.03-21.02-8.03-29.05,0c-8.03,8.03-8.03,21.02,0,29.05l36.39,36.39H314.8
		c-14.26,0-56.56,6.57-92.88,76.59c-39.57-77.09-104.74-76.7-107.43-76.59H30.6c-11.34,0-20.55,9.2-20.55,20.55
		s9.2,20.55,20.55,20.55h84.11c2.32,0,57.34,1.13,82.86,84.75c0.64,2.12,1.34,3.92,1.99,6c-0.66,2.05-1.36,3.86-1.99,5.98
		c-25.52,83.62-80.52,84.77-83.06,84.77H30.62c-11.34,0-20.55,9.18-20.55,20.55c0,11.36,9.2,20.55,20.55,20.55h83.41
		c0.1,0,0.31,0,0.6,0c7.29,0,69.2-2.3,107.33-76.59c36.32,70.02,78.61,76.59,92.88,76.59h89.64l-36.39,36.39
		c-8.03,8.03-8.03,21.02,0,29.05c4.01,4.01,9.27,6.02,14.53,6.02s10.52-2.01,14.53-6.02L485,355.81l-84.13-84.13
		C392.81,263.68,379.81,263.68,371.78,271.72z"/>
</g>
</svg>
