<?xml version="1.0" encoding="utf-8"?>
<!-- Generator: Adobe Illustrator 23.0.4, SVG Export Plug-In . SVG Version: 6.00 Build 0)  -->
<svg version="1.1" id="Layer_1" xmlns="http://www.w3.org/2000/svg" xmlns:xlink="http://www.w3.org/1999/xlink" x="0px" y="0px"
	 viewBox="0 0 625 496" style="enable-background:new 0 0 625 496;" xml:space="preserve">
<style type="text/css">
	.st0{fill:#6241E6;}
	.st1{fill:#474747;}
	.st2{fill:#474747;stroke:#474747;stroke-width:14;stroke-miterlimit:10;}
	.st3{fill:#6241E6;stroke:#6241E6;stroke-width:15;stroke-miterlimit:10;}
	.st4{fill:#474747;stroke:#474747;stroke-width:15;stroke-miterlimit:10;}
	.st5{fill:#FFFFFF;}
	.st6{fill:#474747;stroke:#474747;stroke-width:18;stroke-miterlimit:10;}
	.st7{fill:#6241E6;stroke:#6241E6;stroke-width:18;stroke-miterlimit:10;}
</style>
<g id="圖層_2_2_">
	<g>
		<path class="st4" d="M200.35,463.92c-5.88,0-11.77-2.25-16.25-6.73l-93.8-93.8l99.55-99.55c8.98-8.99,23.51-8.99,32.49,0
			c8.98,8.99,8.98,23.51,0,32.49l-67.05,67.05l61.31,61.31c8.98,8.99,8.98,23.51,0,32.49C212.12,461.7,206.23,463.92,200.35,463.92z
			"/>
	</g>
	<g>
		<path class="st4" d="M373.43,383.5H164.46c-12.71,0-22.98-10.29-22.98-22.98c0-12.68,10.27-22.98,22.98-22.98h208.98
			c0.64,0,70.39-1.38,70.39-38.79v-79c0-12.68,10.27-22.98,22.98-22.98c12.71,0,22.98,10.29,22.98,22.98v79
			C489.76,365.8,413.65,383.5,373.43,383.5z"/>
	</g>
	<g>
		<path class="st4" d="M306.98,242.75c-5.88,0-11.77-2.25-16.25-6.73c-8.98-8.99-8.98-23.51,0-32.49l67.05-67.05l-61.31-61.31
			c-8.98-8.99-8.98-23.51,0-32.49s23.51-8.99,32.49,0l93.8,93.8l-99.55,99.55C318.74,240.52,312.86,242.75,306.98,242.75z"/>
	</g>
	<g>
		<path class="st4" d="M46.3,303.07c-12.71,0-22.98-10.29-22.98-22.98v-79c0-67.03,76.11-84.75,116.35-84.75h208.98
			c12.71,0,22.98,10.29,22.98,22.98c0,12.68-10.27,22.98-22.98,22.98H139.66c-0.64,0-70.39,1.38-70.39,38.79v79
			C69.28,292.8,59,303.07,46.3,303.07z"/>
	</g>
	<g>
		<g>
			<polygon class="st4" points="604.65,360.52 558.69,360.52 558.69,162.32 509.86,162.32 509.86,116.36 604.65,116.36 			"/>
		</g>
	</g>
</g>
</svg>
