<?xml version="1.0" encoding="utf-8"?>
<!-- Generator: Adobe Illustrator 23.0.4, SVG Export Plug-In . SVG Version: 6.00 Build 0)  -->
<svg version="1.1" id="Layer_1" xmlns="http://www.w3.org/2000/svg" xmlns:xlink="http://www.w3.org/1999/xlink" x="0px" y="0px"
	 viewBox="0 0 496 496" style="enable-background:new 0 0 496 496;" xml:space="preserve">
<style type="text/css">
	.st0{fill:#6241E6;}
	.st1{fill:#6241E6;}
	.st2{fill:#6241E6;stroke:#6241E6;stroke-width:14;stroke-miterlimit:10;}
	.st3{fill:#6241E6;stroke:#6241E6;stroke-width:15;stroke-miterlimit:10;}
	.st4{fill:#6241E6;stroke:#6241E6;stroke-width:15;stroke-miterlimit:10;}
	.st5{fill:#FFFFFF;}
	.st6{fill:#6241E6;stroke:#6241E6;stroke-width:18;stroke-miterlimit:10;}
	.st7{fill:#6241E6;stroke:#6241E6;stroke-width:18;stroke-miterlimit:10;}
</style>
<path class="st1" d="M482.96,423.98l-94.25-94.25c-4.25-4.25-10.02-6.62-16.07-6.62h-15.41c26.09-33.37,41.6-75.35,41.6-121.01
	c0-108.62-88.02-196.64-196.64-196.64S5.54,93.47,5.54,202.1s88.02,196.64,196.64,196.64c45.66,0,87.64-15.5,121.01-41.6v15.41
	c0,6.05,2.36,11.82,6.62,16.07l94.25,94.25c8.89,8.89,23.26,8.89,32.05,0l26.75-26.75C491.75,447.24,491.75,432.87,482.96,423.98z
	 M202.18,323.11c-66.84,0-121.01-54.08-121.01-121.01c0-66.84,54.08-121.01,121.01-121.01c66.84,0,121.01,54.08,121.01,121.01
	C323.19,268.94,269.11,323.11,202.18,323.11z"/>
</svg>
